<svg xmlns="http://www.w3.org/2000/svg" width="1000" height="1010" font-family="Helvetica,Arial">
<rect width="1000" height="1010" fill="white"/>
<text x="500.0" y="38" font-size="17" font-weight="bold" fill="#3b3a36" text-anchor="middle">At the hard tail, only a fork closes the proof — no root prover closes it alone</text>
<text x="500.0" y="59" font-size="11.5" fill="#857d70" text-anchor="middle">all 3 fork-wins in the corpus (0/3 closed by a root) · roots made monotone progress (0 rejects) on a route that could not close;</text>
<text x="500.0" y="75" font-size="11.5" fill="#857d70" text-anchor="middle">the winning fork branched to a different route from an earlier checkpoint and closed it</text>
<rect x="40" y="96" width="13" height="11" rx="2" fill="#b3a99c"/><text x="59" y="106" font-size="11.5" fill="#3b3a36">root / dead fork (✗)</text>
<rect x="230" y="96" width="13" height="11" rx="2" fill="#a7b89a"/><text x="249" y="106" font-size="11.5" fill="#3b3a36">winning fork → qed (✓)</text>
<text x="450" y="106" font-size="11" fill="#857d70">bar length = agent turns</text>
<line x1="40" y1="120" x2="960" y2="120" stroke="#d8d2c6"/>
<text x="40" y="148" font-size="13.5" font-weight="bold" fill="#3b3a36">step3<tspan fill="#857d70" font-size="11" font-weight="normal">   119 tactics · PARALLEL FORK · HARD</tspan></text>
<text x="288" y="178" font-size="11.5" text-anchor="end" fill="#857d70">Tree-0.0 (root)</text>
<rect x="300" y="165" width="44.3" height="18" rx="2.5" fill="#b3a99c"/>
<text x="352.3" y="178" font-size="11.5" fill="#3b3a36">5 turns  ✗</text>
<text x="288" y="206" font-size="11.5" text-anchor="end" fill="#857d70">Tree-0.1 (root)</text>
<rect x="300" y="193" width="540.0" height="18" rx="2.5" fill="#b3a99c"/>
<text x="848.0" y="206" font-size="11.5" fill="#3b3a36">61 turns  ✗</text>
<path d="M306,208 V230 H338" fill="none" stroke="#d8d2c6" stroke-width="1.4"/>
<text x="288" y="234" font-size="11.5" text-anchor="end" fill="#857d70">Tree-0.1.0 (fork)</text>
<rect x="338" y="221" width="354.1" height="18" rx="2.5" fill="#a7b89a"/>
<text x="700.1" y="234" font-size="11.5" fill="#3b3a36">40 turns  ✓ qed</text>
<path d="M306,208 V258 H338" fill="none" stroke="#d8d2c6" stroke-width="1.4"/>
<text x="288" y="262" font-size="11.5" text-anchor="end" fill="#857d70">Tree-0.1.1 (fork)</text>
<rect x="338" y="249" width="185.9" height="18" rx="2.5" fill="#d3ccbe"/>
<text x="531.9" y="262" font-size="11.5" fill="#3b3a36">21 turns  ✗</text>
<text x="300" y="276" font-size="12" font-weight="bold" fill="#9b6f60">66 turns of root exploration never closed; the fork closed it in 40 turns</text>
<text x="40" y="312" font-size="13.5" font-weight="bold" fill="#3b3a36">step4_lbad1_sum<tspan fill="#857d70" font-size="11" font-weight="normal">   15 tactics · PARALLEL FORK · HARD</tspan></text>
<text x="288" y="342" font-size="11.5" text-anchor="end" fill="#857d70">Tree-0.0 (root)</text>
<rect x="300" y="329" width="53.1" height="18" rx="2.5" fill="#b3a99c"/>
<text x="361.1" y="342" font-size="11.5" fill="#3b3a36">6 turns  ✗</text>
<text x="288" y="370" font-size="11.5" text-anchor="end" fill="#857d70">Tree-0.1 (root)</text>
<rect x="300" y="357" width="239.0" height="18" rx="2.5" fill="#b3a99c"/>
<text x="547.0" y="370" font-size="11.5" fill="#3b3a36">27 turns  ✗</text>
<path d="M306,372 V394 H338" fill="none" stroke="#d8d2c6" stroke-width="1.4"/>
<text x="288" y="398" font-size="11.5" text-anchor="end" fill="#857d70">Tree-0.1.0 (fork)</text>
<rect x="338" y="385" width="256.7" height="18" rx="2.5" fill="#a7b89a"/>
<text x="602.7" y="398" font-size="11.5" fill="#3b3a36">29 turns  ✓ qed</text>
<text x="300" y="412" font-size="12" font-weight="bold" fill="#9b6f60">33 turns of root exploration never closed; the fork closed it in 29 turns</text>
<text x="40" y="448" font-size="13.5" font-weight="bold" fill="#3b3a36">chacha_spec<tspan fill="#857d70" font-size="11" font-weight="normal">   29 tactics · SINGLE-TREE BACKJUMP-REPAIR · MEDIUM</tspan></text>
<text x="288" y="478" font-size="11.5" text-anchor="end" fill="#857d70">Tree-0.0 (root)</text>
<rect x="300" y="465" width="115.1" height="18" rx="2.5" fill="#b3a99c"/>
<text x="423.1" y="478" font-size="11.5" fill="#3b3a36">13 turns  ✗</text>
<path d="M306,480 V502 H338" fill="none" stroke="#d8d2c6" stroke-width="1.4"/>
<text x="288" y="506" font-size="11.5" text-anchor="end" fill="#857d70">Tree-0.0.0 (fork)</text>
<rect x="338" y="493" width="150.5" height="18" rx="2.5" fill="#a7b89a"/>
<text x="496.5" y="506" font-size="11.5" fill="#3b3a36">17 turns  ✓ qed</text>
<text x="300" y="520" font-size="12" font-weight="bold" fill="#9b6f60">13 turns of root exploration never closed; the fork closed it in 17 turns</text>
</svg>